<svg id="visual" viewBox="0 0 960 540" width="960" height="540" xmlns="http://www.w3.org/2000/svg" xmlns:xlink="http://www.w3.org/1999/xlink" version="1.1"><g transform="translate(524.8572724727087 245.67549215803)"><path d="M150.2 -302.1C169.6 -248.8 143.3 -158.2 175.9 -101.6C208.6 -45 300.3 -22.5 335.7 20.4C371 63.3 350.1 126.7 305.1 161.9C260.1 197.1 191 204.2 136.2 262.5C81.3 320.9 40.7 430.4 3.1 425.1C-34.5 419.8 -69 299.5 -139 249.9C-209 200.3 -314.5 221.4 -375.1 191.5C-435.7 161.7 -451.3 80.8 -439.6 6.8C-428 -67.3 -388.9 -134.7 -346.2 -195.6C-303.6 -256.5 -257.3 -311 -199 -341.8C-140.7 -372.6 -70.3 -379.8 -2.5 -375.5C65.3 -371.2 130.7 -355.3 150.2 -302.1" fill="#22c55e"></path></g></svg>