<svg id="visual" viewBox="0 0 960 540" width="960" height="540" xmlns="http://www.w3.org/2000/svg" xmlns:xlink="http://www.w3.org/1999/xlink" version="1.1"><rect x="0" y="0" width="960" height="540" fill="#121212"></rect><path d="M0 314L8.5 329.3C17 344.7 34 375.3 50.8 387.7C67.7 400 84.3 394 101.2 372.7C118 351.3 135 314.7 151.8 305C168.7 295.3 185.3 312.7 202.2 312.8C219 313 236 296 252.8 304.2C269.7 312.3 286.3 345.7 303.2 342.2C320 338.7 337 298.3 353.8 274.8C370.7 251.3 387.3 244.7 404.2 252.2C421 259.7 438 281.3 454.8 290.2C471.7 299 488.3 295 505.2 295.3C522 295.7 539 300.3 555.8 309.3C572.7 318.3 589.3 331.7 606.2 331.3C623 331 640 317 656.8 305.7C673.7 294.3 690.3 285.7 707.2 302.3C724 319 741 361 757.8 375.7C774.7 390.3 791.3 377.7 808.2 350C825 322.3 842 279.7 858.8 266C875.7 252.3 892.3 267.7 909.2 296.8C926 326 943 369 951.5 390.5L960 412L960 541L951.5 541C943 541 926 541 909.2 541C892.3 541 875.7 541 858.8 541C842 541 825 541 808.2 541C791.3 541 774.7 541 757.8 541C741 541 724 541 707.2 541C690.3 541 673.7 541 656.8 541C640 541 623 541 606.2 541C589.3 541 572.7 541 555.8 541C539 541 522 541 505.2 541C488.3 541 471.7 541 454.8 541C438 541 421 541 404.2 541C387.3 541 370.7 541 353.8 541C337 541 320 541 303.2 541C286.3 541 269.7 541 252.8 541C236 541 219 541 202.2 541C185.3 541 168.7 541 151.8 541C135 541 118 541 101.2 541C84.3 541 67.7 541 50.8 541C34 541 17 541 8.5 541L0 541Z" fill="#22c55e" stroke-linecap="round" stroke-linejoin="miter"></path></svg>